<svg xmlns="http://www.w3.org/2000/svg" viewBox="0 0 320 320" role="img" aria-labelledby="title">
  <title id="title">Pexo Market</title>
  <defs>
    <linearGradient id="orange" x1="0" y1="0" x2="0" y2="1">
      <stop offset="0" stop-color="#ff7600"/>
      <stop offset="1" stop-color="#f04400"/>
    </linearGradient>
    <linearGradient id="gold" x1="0" y1="0" x2="0" y2="1">
      <stop offset="0" stop-color="#fff333"/>
      <stop offset="1" stop-color="#ffb900"/>
    </linearGradient>
    <filter id="shadow" x="-20%" y="-20%" width="140%" height="150%">
      <feGaussianBlur in="SourceAlpha" stdDeviation="2"/>
      <feOffset dy="3"/>
      <feComponentTransfer><feFuncA type="linear" slope=".24"/></feComponentTransfer>
      <feMerge><feMergeNode/><feMergeNode in="SourceGraphic"/></feMerge>
    </filter>
  </defs>
  <circle cx="160" cy="160" r="153" fill="#fffdf7" stroke="#24100a" stroke-width="9"/>
  <circle cx="160" cy="160" r="145" fill="none" stroke="url(#orange)" stroke-width="5"/>
  <g transform="translate(0 -10)" fill="none" stroke-linecap="round" stroke-linejoin="round" filter="url(#shadow)">
    <g stroke="#24100a" stroke-width="16">
      <path d="M126 68 94 48q-15-9-23 4-8 13 7 22l47 28v76q0 12 12 12h93q12 0 17-12l31-72q5-12-8-12H125"/>
      <path d="M130 112H78M130 132H65M130 152H51M130 172H39M138 195h97M149 201l-1 9m57-9 1 9"/>
      <path d="M148 111h119M145 143h111M141 175h98M178 111l-8 64m49-64-8 64"/>
    </g>
    <g stroke="url(#orange)" stroke-width="9">
      <path d="M126 68 94 48q-15-9-23 4-8 13 7 22l47 28v76q0 12 12 12h93q12 0 17-12l31-72q5-12-8-12H125"/>
      <path d="M130 112H78M130 132H65M130 152H51M130 172H39M138 195h97M149 201l-1 9m57-9 1 9"/>
    </g>
    <g fill="#fffdf7" stroke="#24100a" stroke-width="8">
      <circle cx="148" cy="220" r="12"/>
      <circle cx="207" cy="220" r="12"/>
    </g>
    <g fill="none" stroke="url(#orange)" stroke-width="5">
      <circle cx="148" cy="220" r="12"/>
      <circle cx="207" cy="220" r="12"/>
    </g>
  </g>
  <g filter="url(#shadow)" text-anchor="middle" font-family="Manrope, Arial Black, sans-serif" font-weight="1000" paint-order="stroke fill" stroke="#24100a" stroke-linejoin="round">
    <text x="160" y="249" fill="url(#gold)" stroke-width="7" font-size="32" letter-spacing="1">PEXO</text>
    <text x="160" y="284" fill="url(#gold)" stroke-width="6" font-size="26" letter-spacing="1">MARKET</text>
  </g>
</svg>