<svg xmlns="http://www.w3.org/2000/svg" viewBox="0 0 800 800" role="img" aria-labelledby="title">
  <title id="title">Pexo Market</title>
  <defs>
    <linearGradient id="cart" x1="0" y1="0" x2="0" y2="1">
      <stop offset="0" stop-color="#ff6a00"/>
      <stop offset="1" stop-color="#ff3d00"/>
    </linearGradient>
    <linearGradient id="letters" x1="0" y1="0" x2="0" y2="1">
      <stop offset="0" stop-color="#fff400"/>
      <stop offset="1" stop-color="#ffb900"/>
    </linearGradient>
    <filter id="shadow" x="-20%" y="-20%" width="140%" height="150%">
      <feGaussianBlur in="SourceAlpha" stdDeviation="7"/>
      <feOffset dy="9"/>
      <feComponentTransfer><feFuncA type="linear" slope=".32"/></feComponentTransfer>
      <feMerge><feMergeNode/><feMergeNode in="SourceGraphic"/></feMerge>
    </filter>
  </defs>
  <g filter="url(#shadow)" stroke="#1e0b08" stroke-linecap="round" stroke-linejoin="round">
    <path d="M151 70c-13-7-29-3-36 10-7 13-3 29 10 36l78 46v189H91c-10 0-18 8-18 18s8 18 18 18h112v39H63c-10 0-18 8-18 18s8 18 18 18h140v39H34c-10 0-18 8-18 18s8 18 18 18h169v39H8c-10 0-18 8-18 18s8 18 18 18h195v38c0 24 19 43 43 43h13v17c0 54 43 97 97 97s97-43 97-97v-17h89v17c0 54 43 97 97 97s97-43 97-97v-17h13c24 0 43-19 43-43v-10c0-24-19-43-43-43H277l-3-4 64-42h302c17 0 32-10 39-25l91-207c8-19-6-40-27-40H203V170c0-12-6-23-17-29L151 70zm190 626v17c0 24-19 43-43 43s-43-19-43-43v-17h86zm296 0v17c0 24-19 43-43 43s-43-19-43-43v-17h86zm-83-300h-95V282h116l-21 114zm-132 0h-95V282h95v114zm-132 0h-55l-3-114h58v114zm0-154V205h403l-14 37H290zm-61 154h-29V282h26l3 114zm22 133c-13 0-23 10-23 23s10 23 23 23h425v10c0 4-3 7-7 7H264c-4 0-7-3-7-7v-64l22-14h303l21-25 4-8H251z" fill="url(#cart)" stroke-width="10"/>
    <path d="M221 205h452M219 282h438M219 396h387" fill="none" stroke="#260d08" stroke-width="23"/>
    <path d="M315 206l-11 190m144-190v190m128-190-11 190m-192-77h305" fill="none" stroke="#260d08" stroke-width="23"/>
  </g>
  <g filter="url(#shadow)" fill="url(#letters)" stroke="#21100b" stroke-width="12" stroke-linejoin="round" paint-order="stroke fill" font-family="Manrope, Arial Black, sans-serif" font-weight="1000" text-anchor="middle">
    <text x="400" y="646" font-size="112" letter-spacing="1">Pexo</text>
    <text x="400" y="765" font-size="112" letter-spacing="1">Market</text>
  </g>
</svg>
